PathFileType	4	(X/Y/Z)	0_coords_data.trc
DataRate	CameraRate	NumFrames	NumMarkers	Units	OrigDataRate	OrigDataStartFrame	OrigNumFrames
30.0	30.0	8	21	m	30.0	11	72
Frame#	Time	THUMB_TIP	THUMB_IP	THUMB_MCP	THUMB_CMC	INDEX_TIP	INDEX_DIP	INDEX_PIP	INDEX_MCP	MIDDLE_TIP	MIDDLE_DIP	MIDDLE_PIP	MIDDLE_MCP	RING_TIP	RING_DIP	RING_PIP	RING_MCP	PINKY_TIP	PINKY_DIP	PINKY_PIP	PINKY_MCP	WRIST
X1	Y1	Z1	X2	Y2	Z2	X3	Y3	Z3	X4	Y4	Z4	X5	Y5	Z5	X6	Y6	Z6	X7	Y7	Z7	X8	Y8	Z8	X9	Y9	Z9	X10	Y10	Z10	X11	Y11	Z11	X12	Y12	Z12	X13	Y13	Z13	X14	Y14	Z14	X15	Y15	Z15	X16	Y16	Z16	X17	Y17	Z17	X18	Y18	Z18	X19	Y19	Z19	X20	Y20	Z20	X21	Y21	Z21
10	0.3333333333333333	-0.0032828900814056393	-0.058617298126220706	1.0051099853515626	-0.0045077199935913085	-0.039536899566650394	0.9885050048828125	-0.022373199462890625	-0.019420000076293947	0.9754500122070312	-0.02308180046081543	0.014088500022888183	0.969541015625	-0.012062999725341797	-0.12599500274658204	0.9517839965820313	-0.012993100166320801	-0.10324299621582031	0.9487869873046875	-0.013548299789428711	-0.0800322036743164	0.9446099853515625	-0.010493599891662597	-0.037597301483154294	0.9302659912109374	-0.00041523098945617606	-0.03720510101318359	0.9677139892578125	0.00142153000831604	-0.058781501770019534	0.9727039794921875	0.00814188003540039	-0.07370200347900391	0.9528770141601562	0.015247699737548828	-0.03347890090942383	0.9297329711914063	0.015586099624633788	-0.0338927001953125	0.9790029907226563	0.018856000900268555	-0.053238998413085936	0.9802579956054688	0.03273410034179688	-0.06455819702148438	0.9639010009765625	0.034735198974609374	-0.025928899765014647	0.9430590209960937	0.08552349853515626	-0.07614009857177734	0.9539169921875	0.07332129669189454	-0.058544898986816404	0.9576539916992187	0.06119309997558594	-0.04270880126953125	0.9593060302734375	0.042968498229980466	-0.016499099731445314	0.9619089965820312	-0.006579309940338135	0.050643600463867185	0.9662260131835938
11	0.36666666666666664	-0.003194370031356811	-0.05845809936523438	1.0049500122070312	-0.0041598501205444335	-0.03951490020751953	0.9885980224609375	-0.022346500396728516	-0.020065900802612304	0.974510986328125	-0.02304520034790039	0.01389739990234375	0.9694660034179687	-0.01159819984436035	-0.12625399780273439	0.9516950073242187	-0.012636500358581543	-0.1034469985961914	0.948718017578125	-0.013161000251770019	-0.08022059631347657	0.9444580078125	-0.01033489990234375	-0.03791389846801758	0.92968701171875	-0.000278728008270263	-0.03783819961547852	0.9680800170898437	0.0017980799674987792	-0.0591416015625	0.9724429931640625	0.008515970230102539	-0.07390070343017578	0.952666015625	0.015316900253295898	-0.03390039825439453	0.9291190185546875	0.015665300369262697	-0.03428820037841797	0.978093994140625	0.01903779983520508	-0.053678600311279294	0.979926025390625	0.03293709945678711	-0.06481800079345704	0.9635609741210938	0.034860198974609374	-0.02619939994812012	0.9430980224609375	0.08583399963378906	-0.07616719818115235	0.9537769775390625	0.07360150146484375	-0.0585629997253418	0.9575250244140625	0.06141889953613281	-0.04275439834594726	0.9589210205078125	0.043143600463867185	-0.016833799362182617	0.9618660278320312	-0.00677826976776123	0.05052790069580078	0.9659219970703125
12	0.4	-0.002819940090179443	-0.05892409896850586	1.004719970703125	-0.003645740032196045	-0.040114799499511716	0.98793701171875	-0.021884899139404296	-0.019956699371337892	0.9747659912109375	-0.022791200637817383	0.013739700317382813	0.968968994140625	-0.011058500289916992	-0.12641799926757813	0.9512990112304688	-0.012171099662780762	-0.10355000305175781	0.9484199829101563	-0.012805399894714355	-0.08038880157470703	0.9441240234375	-0.010023599624633788	-0.0381150016784668	0.9297319946289062	1.011350005865e-05	-0.03813740158081055	0.9674530029296875	0.002189579963684082	-0.05923820114135742	0.9725650024414062	0.008852700233459472	-0.0739844970703125	0.9524520263671875	0.015682999610900878	-0.03375210189819336	0.929301025390625	0.01624139976501465	-0.034782299041748045	0.9791389770507812	0.019644500732421875	-0.05397079849243164	0.9804000244140625	0.0332682991027832	-0.06485710144042969	0.9634340209960938	0.03525630187988281	-0.026137699127197267	0.9426829833984375	0.08603520202636719	-0.07620600128173828	0.9534970092773437	0.07378739929199218	-0.05866680145263672	0.9571690063476562	0.061613800048828125	-0.042791099548339845	0.958947998046875	0.04343090057373047	-0.01666379928588867	0.961427978515625	-0.006793829917907715	0.05036399841308594	0.9659299926757813
13	0.43333333333333335	-0.002713769912719726	-0.05877539825439453	1.0039600219726563	-0.004039330005645752	-0.040283199310302734	0.9874910278320312	-0.021434600830078126	-0.01990139961242676	0.974469970703125	-0.022669500350952148	0.013633700370788574	0.9683920288085938	-0.010404800415039063	-0.1262070007324219	0.9505	-0.011546999931335448	-0.10330599975585937	0.947677978515625	-0.012207900047302246	-0.08019429779052735	0.9434739990234375	-0.009666509628295898	-0.03787839889526367	0.928947998046875	0.000451492011547088	-0.03802619934082031	0.966583984375	0.002173899888992309	-0.059007701873779295	0.9718369750976562	0.009318340301513671	-0.07376640319824218	0.9517789916992188	0.01614859962463379	-0.033384899139404296	0.92852099609375	0.01618519973754883	-0.03423249816894531	0.9778359985351562	0.020025499343872072	-0.05353219985961914	0.9796539916992187	0.033641300201416015	-0.06448500061035156	0.962822998046875	0.035447498321533204	-0.025710500717163087	0.9422249755859375	0.08643589782714843	-0.07582520294189453	0.9528040161132812	0.07421980285644532	-0.058279098510742186	0.95660400390625	0.06199340057373047	-0.042447200775146486	0.95806201171875	0.04357699966430664	-0.016246200561523438	0.961083984375	-0.006456940174102783	0.05048419952392578	0.9654760131835938
14	0.4666666666666667	-0.002434730052947998	-0.05859769821166992	1.002989990234375	-0.003369400024414062	-0.039248401641845704	0.9867930297851563	-0.021184099197387694	-0.01959939956665039	0.973291015625	-0.022567399978637694	0.014052399635314941	0.9680239868164062	-0.010008600234985352	-0.12569400024414062	0.9492210083007813	-0.011246000289916992	-0.1027239990234375	0.9465419921875	-0.011998000144958497	-0.07955120086669921	0.9424439697265625	-0.009346670150756835	-0.037145801544189457	0.928093994140625	0.000425552010536193	-0.03723109817504883	0.9670440063476563	0.0024303500652313233	-0.0587781982421875	0.9707020263671875	0.009559800148010254	-0.0732664031982422	0.9508560180664063	0.016298099517822264	-0.03284049987792969	0.9276380004882813	0.01657640075683594	-0.03374860000610352	0.9760059814453125	0.020236900329589844	-0.05317800140380859	0.9789630126953125	0.033972999572753904	-0.06408270263671875	0.9619409790039063	0.035705501556396485	-0.0252096004486084	0.94143701171875	0.08680349731445312	-0.07518219757080079	0.9520750122070313	0.07448590087890625	-0.05772330093383789	0.9558200073242188	0.06215859985351563	-0.04177239990234375	0.95752099609375	0.04374959945678711	-0.016042999267578125	0.9605020141601562	-0.006184539794921875	0.05101649856567383	0.9651489868164063
15	0.5	-0.0024813399314880373	-0.058022300720214845	1.0026199951171875	-0.0040418200492858885	-0.03915449905395508	0.9861820068359375	-0.021655099868774414	-0.018763200759887695	0.9731090087890625	-0.02244499969482422	0.014847999572753906	0.9678300170898437	-0.010551600456237794	-0.12497000122070312	0.9480679931640625	-0.011741600036621093	-0.10211100006103516	0.9453560180664062	-0.012372099876403808	-0.07884249877929687	0.94143701171875	-0.009638090133666993	-0.03627040100097656	0.9274229736328125	-8.434460312128e-05	-0.03648590087890625	0.9665120239257813	0.0022019801139831537	-0.05829800033569336	0.97027099609375	0.009135140419006347	-0.07259249877929687	0.9500289916992187	0.016100099563598633	-0.032046298980712894	0.9273170166015625	0.016410699844360353	-0.03261009979248047	0.97589501953125	0.019518699645996094	-0.05238290023803711	0.9779359741210938	0.03354990005493164	-0.06368610000610352	0.9613259887695312	0.035463600158691405	-0.02440609931945801	0.9409749755859375	0.08643599700927734	-0.07487159729003906	0.951458984375	0.07417040252685547	-0.057319000244140626	0.9553270263671875	0.06184669876098633	-0.041359199523925784	0.9572630004882813	0.04374480056762695	-0.01579300022125244	0.9600590209960937	-0.006213530063629151	0.05151910018920899	0.9645770263671875
16	0.5333333333333333	-0.003223050117492676	-0.05766019821166992	1.0018699951171874	-0.004292779922485351	-0.03883700180053711	0.9859030151367187	-0.021930599212646486	-0.018382900238037108	0.9723179931640625	-0.02294770050048828	0.015012399673461914	0.9669810180664062	-0.010618800163269044	-0.12440399932861328	0.9476430053710938	-0.011838600158691407	-0.10151599884033204	0.9450449829101563	-0.0125447998046875	-0.07822599792480468	0.9411630249023437	-0.00975811004638672	-0.03573450088500976	0.927114013671875	-0.0005237219929695121	-0.03655739974975586	0.967281982421875	0.002047480106353759	-0.05747760009765625	0.9698270263671875	0.008938150405883789	-0.07201580047607421	0.9496649780273437	0.015805299758911134	-0.031344999313354494	0.9269340209960938	0.015932600021362306	-0.03259389877319336	0.9760590209960938	0.019328100204467773	-0.05133489990234375	0.9784730224609375	0.0333479995727539	-0.06304880142211915	0.9610419921875	0.0352844009399414	-0.023794099807739257	0.9408419799804687	0.08609459686279297	-0.07429139709472657	0.951218994140625	0.07385279846191406	-0.05676959991455078	0.9550560302734376	0.061615898132324216	-0.04082440185546875	0.956843017578125	0.04327730178833008	-0.014816900253295899	0.9595599975585938	-0.006728000164031982	0.052116199493408205	0.964531005859375
17	0.5666666666666667	-0.0026115999221801756	-0.057377799987792966	1.0021799926757813	-0.003582789897918701	-0.03818519973754883	0.986114990234375	-0.021836999893188477	-0.018305200576782227	0.9725880126953125	-0.022968700408935547	0.015423399925231934	0.967177978515625	-0.010280699729919433	-0.12421299743652343	0.9476430053710938	-0.011567899703979492	-0.1013759994506836	0.9450150146484375	-0.012355299949645996	-0.07803489685058594	0.9410989990234375	-0.00988018035888672	-0.035492500305175784	0.9269879760742188	-7.9104997217655e-05	-0.03608679962158203	0.9655889892578124	0.002207350015640259	-0.05742459869384765	0.969864013671875	0.009114629745483398	-0.07176319885253907	0.9496680297851563	0.01585550022125244	-0.031160600662231447	0.9269669799804687	0.015307100296020507	-0.03263290023803711	0.9763150024414062	0.019376699447631835	-0.05173680114746094	0.977385986328125	0.033403900146484374	-0.06275609970092773	0.9609769897460938	0.03518510055541992	-0.023468799591064453	0.940718994140625	0.08625630187988281	-0.07372080230712891	0.9513480224609375	0.07389320373535156	-0.05628170013427734	0.9550960083007812	0.06163949966430664	-0.04043099975585938	0.9567160034179687	0.043281700134277346	-0.014672200202941894	0.9597869873046875	-0.006864029884338379	0.052296600341796874	0.9649639892578125
